<svg xmlns="http://www.w3.org/2000/svg" width="180" height="180" viewBox="0 0 180 180">
<g>
<path d="M 102.74 149.42 C93.68,151.29 86.71,151.32 78.47,149.53 C62.52,146.06 51.69,136.43 48.06,122.50 C48.01,122.32 47.96,122.15 47.92,121.98 C47.10,118.84 46.64,117.11 47.31,116.16 C48.12,115.00 50.60,115.00 56.13,115.00 C56.37,115.00 56.62,115.00 56.87,115.00 L 66.74 115.00 L 67.35 118.75 C68.07,123.20 71.51,127.17 77.29,130.22 C83.35,133.42 98.60,133.45 104.62,130.27 C112.30,126.21 116.10,119.29 114.54,112.20 C113.26,106.33 108.20,103.54 87.85,97.45 C71.32,92.51 66.01,90.02 59.88,84.32 C53.02,77.93 50.80,72.81 50.83,63.43 C50.90,47.55 60.82,36.21 78.72,31.57 C90.61,28.49 103.94,29.87 114.61,35.29 C124.49,40.32 132.64,52.60 131.82,61.21 L 131.50 64.50 L 124.52 64.80 C114.80,65.22 113.00,64.63 113.00,61.06 C113.00,57.17 108.64,52.17 103.11,49.73 C96.49,46.80 84.38,47.03 78.16,50.20 C71.83,53.43 68.15,60.00 69.55,65.60 C71.23,72.33 77.52,75.89 97.50,81.45 C116.27,86.67 125.49,92.50 130.37,102.25 C133.87,109.25 134.64,115.12 132.98,122.16 C131.17,129.87 128.84,133.94 123.24,139.18 C116.87,145.14 112.21,147.46 102.74,149.42 Z" fill="rgb(4,122,249)"/>
<path d="M 0.00 90.00 L 0.00 0.00 L 90.00 0.00 L 180.00 0.00 L 180.00 90.00 L 180.00 180.00 L 90.00 180.00 L 0.00 180.00 L 0.00 90.00 ZM 102.74 149.42 C112.21,147.46 116.87,145.14 123.24,139.18 C128.84,133.94 131.17,129.87 132.98,122.16 C134.64,115.12 133.87,109.25 130.37,102.25 C125.49,92.50 116.27,86.67 97.50,81.45 C77.52,75.89 71.23,72.33 69.55,65.60 C68.15,60.00 71.83,53.43 78.16,50.20 C84.38,47.03 96.49,46.80 103.11,49.73 C108.64,52.17 113.00,57.17 113.00,61.06 C113.00,64.63 114.80,65.22 124.52,64.80 L 131.50 64.50 L 131.82 61.21 C132.64,52.60 124.49,40.32 114.61,35.29 C103.94,29.87 90.61,28.49 78.72,31.57 C60.82,36.21 50.90,47.55 50.83,63.43 C50.80,72.81 53.02,77.93 59.88,84.32 C66.01,90.02 71.32,92.51 87.85,97.45 C108.20,103.54 113.26,106.33 114.54,112.20 C116.10,119.29 112.30,126.21 104.62,130.27 C98.60,133.45 83.35,133.42 77.29,130.22 C71.51,127.17 68.07,123.20 67.35,118.75 L 66.74 115.00 L 56.87 115.00 C45.84,115.00 46.05,114.82 48.06,122.50 C51.69,136.43 62.52,146.06 78.47,149.53 C86.71,151.32 93.68,151.29 102.74,149.42 Z" fill="rgb(253,254,254)"/>
</g>
</svg>